<?xml version="1.0" standalone="no"?><!DOCTYPE svg PUBLIC "-//W3C//DTD SVG 1.1//EN" "http://www.w3.org/Graphics/SVG/1.1/DTD/svg11.dtd"><svg t="1589539396620" class="icon" viewBox="0 0 1097 1024" version="1.1" xmlns="http://www.w3.org/2000/svg" p-id="6477" xmlns:xlink="http://www.w3.org/1999/xlink" width="214.2578125" height="200"><defs><style type="text/css"></style></defs><path d="M1093.540571 844.251429c-18.176-52.461714-78.317714-59.977143-128.621714-81.097143-55.204571-23.149714-116.406857-50.066286-171.465143-72.557715l-47.177143-12.8c-18.742857-12.873143-37.12-55.588571-47.140571-76.818285l-30.006857-4.260572c1.554286-32.877714 21.961143-34.633143 30.006857-59.721143 7.076571-22.198857 0.731429-50.980571 11.940571-71.442285 7.789714-14.262857 25.362286-14.354286 34.194286-26.532572 7.954286-11.099429 13.202286-30.390857 15.689143-43.995428 4.571429-24.777143 8.502857-58.715429-3.309714-83.309715-6.802286-14.134857-11.099429-15.488-12.982857-32.64-2.304-20.772571 6.144-88.594286 6.491428-103.241142 0.877714-38.034286-0.073143-41.106286-9.289143-78.171429 0 0-11.245714-33.554286-28.836571-43.648l-35.072-6.034286-21.686857-19.968c-87.350857-53.540571-181.010286-16-231.186286 4.242286-72.283429 23.332571-117.942857 93.824-86.052571 244.352 5.430857 25.709714-14.153143 37.193143-12.873143 51.2 2.779429 30.72 3.401143 104.466286 32.512 122.642286 2.706286 1.645714 23.350857 6.838857 23.222857 5.394285 2.870857 29.915429 5.705143 59.794286 8.594286 89.654858 7.241143 19.84 24.704 22.034286 29.750857 50.066285l-22.326857 5.412572c-10.002286 21.248-28.397714 63.945143-47.177143 76.8-15.689143 4.297143-31.414857 8.539429-47.140572 12.8-55.058286 22.491429-116.297143 49.408-171.465143 72.557714-50.285714 21.138286-110.445714 28.653714-128.64 81.115429 0 35.620571-3.346286 119.771429-2.450285 166.436571h480.621714l35.254857-239.908571-29.312-61.604572 67.712-32.310857 57.014857 31.634286-31.414857 63.451428 55.588572 238.738286h459.52c0.914286-46.646857-2.486857-130.816-2.486858-166.436571z" fill="#2ab561" p-id="6478"></path></svg>