<?xml version="1.0" standalone="no"?><!DOCTYPE svg PUBLIC "-//W3C//DTD SVG 1.1//EN" "http://www.w3.org/Graphics/SVG/1.1/DTD/svg11.dtd"><svg t="1589543775878" class="icon" viewBox="0 0 1024 1024" version="1.1" xmlns="http://www.w3.org/2000/svg" p-id="4595" xmlns:xlink="http://www.w3.org/1999/xlink" width="200" height="200"><defs><style type="text/css"></style></defs><path d="M0 0" p-id="4596" fill="#bfbfbf"></path><path d="M727.426844 785.066667h-8.465066c-56.797867 34.133333-131.288178 88.894578-205.789867 88.894577-75.138844 0-150.232178-54.761244-207.473778-88.894577h-11.844266C178.107733 785.066667 85.333333 863.744 85.333333 981.333333v21.333334C85.333333 1014.4768 93.525333 1024 105.335467 1024h810.666666c11.810133 0 22.664533-9.5232 22.664534-21.333333V981.333333C938.632533 863.744 843.093333 785.066667 727.426844 785.066667z" p-id="4597" fill="#bfbfbf"></path><path d="M802.0992 349.627733V227.259733C802.0992 104.072533 695.227733 0 560.219022 0h-94.264889C343.278933 0 221.832533 91.3408 221.832533 227.259733v122.368c-28.808533 0-34.133333 52.6336-34.133333 72.021334v53.009066c0 28.0576 3.413333 87.8592 53.384533 101.1712 12.117333 120.979911 143.189333 238.2848 268.0832 238.2848 123.733333 0 243.780267-117.339022 255.726934-238.375822 47.650133-13.073067 71.350044-69.677511 71.350044-101.080178v-53.009066c-0.011378-19.387733-0.011378-61.6448-34.144711-72.021334zM418.816 368.64a47.126756 47.126756 0 0 1-47.138133-47.138133 47.138133 47.138133 0 1 1 94.276266 0A47.149511 47.149511 0 0 1 418.816 368.64z m188.552533 0a47.183644 47.183644 0 0 1-47.149511-47.138133 47.183644 47.183644 0 0 1 47.149511-47.172267 47.160889 47.160889 0 0 1 0 94.3104z" p-id="4598" fill="#bfbfbf"></path></svg>