<?xml version="1.0" standalone="no"?><!DOCTYPE svg PUBLIC "-//W3C//DTD SVG 1.1//EN" "http://www.w3.org/Graphics/SVG/1.1/DTD/svg11.dtd"><svg t="1589532448464" class="icon" viewBox="0 0 1448 1024" version="1.1" xmlns="http://www.w3.org/2000/svg" p-id="7163" xmlns:xlink="http://www.w3.org/1999/xlink" width="282.8125" height="200"><defs><style type="text/css"></style></defs><path d="M 1146.13 510.022 c 0 -55.9046 -70.0097 -108.885 -177.347 -141.74 c 24.77 -109.401 13.7611 -196.44 -34.7469 -224.306 c -11.1809 -6.53654 -24.254 -9.63279 -38.5312 -9.63279 v 38.3591 c 7.91265 0 14.2772 1.54813 19.6096 4.47237 c 23.3939 13.4171 33.5428 64.5053 25.6301 130.215 c -1.89216 16.1693 -4.98841 33.1987 -8.77272 50.5721 c -33.7148 -8.25668 -70.5258 -14.6212 -109.229 -18.7495 c -23.2219 -31.8226 -47.3039 -60.721 -71.5579 -86.0071 c 56.0766 -52.1203 108.713 -80.6746 144.492 -80.6746 V 134.171 c -47.3039 0 -109.229 33.7148 -171.842 92.1996 c -62.6131 -58.1408 -124.538 -91.5115 -171.842 -91.5115 v 38.3591 c 35.6069 0 88.4153 28.3823 144.492 80.1586 c -24.082 25.2861 -48.164 54.0124 -71.0418 85.835 c -38.8752 4.12834 -75.6862 10.4929 -109.401 18.9216 c -3.95633 -17.2014 -6.88056 -33.8868 -8.94473 -49.8841 c -8.08466 -65.7094 1.89216 -116.798 25.1141 -130.387 c 5.16042 -3.09625 11.869 -4.47237 19.7816 -4.47237 V 135.031 c -14.4492 0 -27.5223 3.09625 -38.8752 9.63279 c -48.336 27.8663 -59.1729 114.733 -34.2308 223.79 c -106.993 33.0267 -176.658 85.835 -176.658 141.568 c 0 55.9046 70.0097 108.885 177.347 141.74 c -24.77 109.401 -13.7611 196.44 34.7468 224.306 c 11.1809 6.53654 24.254 9.63279 38.7032 9.63279 c 47.3039 0 109.229 -33.7148 171.842 -92.1996 c 62.6131 58.1408 124.538 91.5115 171.842 91.5115 c 14.4492 0 27.5223 -3.09625 38.8752 -9.63279 c 48.336 -27.8663 59.1729 -114.733 34.2308 -223.79 c 106.649 -32.8547 176.314 -85.835 176.314 -141.568 Z m -223.962 -114.733 c -6.36452 22.1898 -14.2772 45.0677 -23.2219 67.9456 c -7.05258 -13.7611 -14.4492 -27.5223 -22.5338 -41.2834 c -7.91265 -13.7611 -16.3413 -27.1782 -24.77 -40.2513 c 24.426 3.6123 47.9919 8.08466 70.5258 13.5891 Z m -78.7825 183.195 c -13.4171 23.2219 -27.1782 45.2397 -41.4554 65.7094 c -25.6301 2.23618 -51.6042 3.44028 -77.7504 3.44028 c -25.9741 0 -51.9483 -1.2041 -77.4063 -3.26827 c -14.2772 -20.4697 -28.2103 -42.3155 -41.6274 -65.3654 c -13.0731 -22.5338 -24.942 -45.4117 -35.7789 -68.4616 c 10.6649 -23.0499 22.7059 -46.0998 35.6069 -68.6336 c 13.4171 -23.2219 27.1782 -45.2397 41.4554 -65.7094 c 25.6301 -2.23618 51.6042 -3.44028 77.7504 -3.44028 c 25.9741 0 51.9483 1.2041 77.4063 3.26827 c 14.2772 20.4697 28.2103 42.3155 41.6274 65.3654 c 13.0731 22.5338 24.942 45.4117 35.7789 68.4616 c -10.8369 23.0499 -22.7059 46.0998 -35.6069 68.6336 Z m 55.5606 -22.3618 c 9.28876 23.0499 17.2014 46.0998 23.7379 68.4616 c -22.5338 5.50445 -46.2718 10.1488 -70.8698 13.7611 c 8.42869 -13.2451 16.8574 -26.8342 24.77 -40.7673 c 7.91265 -13.7611 15.3093 -27.6943 22.3618 -41.4554 Z M 724.523 739.661 c -15.9973 -16.5134 -31.9946 -34.9189 -47.8199 -55.0445 c 15.4813 0.688056 31.3066 1.2041 47.3039 1.2041 c 16.1693 0 32.1666 -0.344028 47.8199 -1.2041 c -15.4813 20.1257 -31.4786 38.5312 -47.3039 55.0445 Z m -127.979 -101.316 c -24.426 -3.6123 -47.9919 -8.08466 -70.5258 -13.5891 c 6.36452 -22.1898 14.2772 -45.0677 23.2219 -67.9456 c 7.05258 13.7611 14.4492 27.5223 22.5338 41.2834 c 8.08466 13.7611 16.3413 27.1782 24.77 40.2513 Z M 723.663 280.383 c 15.9973 16.5134 31.9946 34.9189 47.8199 55.0445 c -15.4813 -0.688056 -31.3066 -1.2041 -47.3039 -1.2041 c -16.1693 0 -32.1666 0.344028 -47.8199 1.2041 c 15.4813 -20.1257 31.4786 -38.5312 47.3039 -55.0445 Z m -127.29 101.316 c -8.42869 13.2451 -16.8574 26.8342 -24.77 40.7673 c -7.91265 13.7611 -15.3093 27.5223 -22.3618 41.2834 c -9.28876 -23.0499 -17.2014 -46.0998 -23.7379 -68.4616 c 22.5338 -5.33244 46.2718 -9.97682 70.8698 -13.5891 Z m -155.673 215.362 c -60.893 -25.9741 -100.284 -60.0329 -100.284 -87.0391 c 0 -27.0062 39.3912 -61.237 100.284 -87.0391 c 14.7932 -6.36452 30.9625 -12.041 47.6479 -17.3734 c 9.8048 33.7148 22.7059 68.8056 38.7032 104.757 c -15.8253 35.7789 -28.5543 70.6978 -38.1871 104.241 c -17.0294 -5.33244 -33.1987 -11.1809 -48.164 -17.5454 Z M 533.244 842.869 c -23.3939 -13.4171 -33.5428 -64.5053 -25.6301 -130.215 c 1.89216 -16.1693 4.98841 -33.1987 8.77272 -50.5721 c 33.7148 8.25668 70.5258 14.6212 109.229 18.7495 c 23.2219 31.8226 47.3039 60.721 71.5579 86.0071 c -56.0766 52.1203 -108.713 80.6746 -144.492 80.6746 c -7.74063 -0.172014 -14.2772 -1.72014 -19.4376 -4.64438 Z m 408.017 -131.075 c 8.08466 65.7094 -1.89216 116.798 -25.1141 130.387 c -5.16042 3.09625 -11.869 4.47237 -19.7816 4.47237 c -35.6069 0 -88.4153 -28.3823 -144.492 -80.1586 c 24.082 -25.2861 48.164 -54.0124 71.0418 -85.835 c 38.8752 -4.12834 75.6862 -10.4929 109.401 -18.9216 c 3.95633 17.3734 7.05258 34.0588 8.94473 50.0561 Z m 66.2254 -114.733 c -14.7932 6.36452 -30.9625 12.041 -47.6479 17.3734 c -9.8048 -33.7148 -22.7059 -68.8056 -38.7032 -104.757 c 15.8253 -35.7789 28.5543 -70.6978 38.1871 -104.241 c 17.0294 5.33244 33.1987 11.1809 48.336 17.5454 c 60.893 25.9741 100.284 60.0329 100.284 87.0391 c -0.172014 27.0062 -39.5632 61.237 -100.456 87.0391 Z M 551.821 134.859 Z" fill="#1296db" p-id="7164"></path><path d="M 724.007 510.022 m -78.6105 0 a 78.6105 78.6105 0 1 0 157.221 0 a 78.6105 78.6105 0 1 0 -157.221 0 Z" fill="#1296db" p-id="7165"></path></svg>